<svg 
  xmlns="http://www.w3.org/2000/svg" 
  viewBox="0 0 24 24" 
  width="24" 
  height="24" 
  role="img" 
  aria-label="CrimeMiner Logo"
  preserveAspectRatio="xMidYMid meet"
>
  <title>CrimeMiner</title>
  <desc>Official logo of the CrimeMiner investigative platform</desc>
  
  <!-- Magnifying glass handle -->
  <path 
    d="M15.5 14h-.79l-.28-.27A6.471 6.471 0 0 0 16 9.5 6.5 6.5 0 1 0 9.5 16c1.61 0 3.09-.59 4.23-1.57l.27.28v.79l5 4.99L20.49 19l-4.99-5z"
    fill="#1A73E8"
    stroke="none"
  />
  
  <!-- Magnifying glass lens -->
  <path 
    d="M9.5 14C7.01 14 5 11.99 5 9.5S7.01 5 9.5 5 14 7.01 14 9.5 11.99 14 9.5 14z"
    fill="#34A853"
    stroke="none"
  />
  
  <!-- Data points inside lens -->
  <path 
    d="M8.5 8.5h2M8.5 10.5h2"
    stroke="#FFFFFF"
    stroke-width="0.75"
    stroke-linecap="round"
  />
  
  <!-- Shield emblem -->
  <path 
    d="M9.5 7.5c-1.1 0-2 .9-2 2s.9 2 2 2 2-.9 2-2-.9-2-2-2zm0 3c-.55 0-1-.45-1-1s.45-1 1-1 1 .45 1 1-.45 1-1 1z"
    fill="#FFFFFF"
    stroke="none"
  />
</svg>