<?xml version="1.0" encoding="UTF-8"?>
<svg xmlns="http://www.w3.org/2000/svg" xmlns:xlink="http://www.w3.org/1999/xlink" viewBox="0 0 24 24" aria-hidden="false" role="img" fill="currentColor" stroke="none">
  <!-- CrimeMiner Logo -->
  <symbol id="cm-logo" viewBox="0 0 24 24" aria-label="CrimeMiner Logo" focusable="false">
    <path d="M12 2L2 7v10l10 5 10-5V7L12 2zm0 2.8l6.4 3.2-6.4 3.2L5.6 8 12 4.8zM4 8.8l7 3.5v6.9l-7-3.5V8.8zm9 10.4v-6.9l7-3.5v6.9l-7 3.5z"/>
  </symbol>

  <!-- High Contrast Logo -->
  <symbol id="cm-logo-high-contrast" viewBox="0 0 24 24" aria-label="CrimeMiner Logo High Contrast" focusable="false">
    <path stroke-width="2" d="M12 2L2 7v10l10 5 10-5V7L12 2zm0 2.8l6.4 3.2-6.4 3.2L5.6 8 12 4.8zM4 8.8l7 3.5v6.9l-7-3.5V8.8zm9 10.4v-6.9l7-3.5v6.9l-7 3.5z"/>
  </symbol>

  <!-- Profile Icon -->
  <symbol id="cm-profile" viewBox="0 0 24 24" aria-label="User Profile" focusable="true">
    <path d="M12 2C6.48 2 2 6.48 2 12s4.48 10 10 10 10-4.48 10-10S17.52 2 12 2zm0 3c1.66 0 3 1.34 3 3s-1.34 3-3 3-3-1.34-3-3 1.34-3 3-3zm0 14.2c-2.5 0-4.71-1.28-6-3.22.03-1.99 4-3.08 6-3.08 1.99 0 5.97 1.09 6 3.08-1.29 1.94-3.5 3.22-6 3.22z"/>
  </symbol>

  <!-- High Contrast Profile -->
  <symbol id="cm-profile-high-contrast" viewBox="0 0 24 24" aria-label="User Profile High Contrast" focusable="true">
    <path stroke-width="2" d="M12 2C6.48 2 2 6.48 2 12s4.48 10 10 10 10-4.48 10-10S17.52 2 12 2zm0 3c1.66 0 3 1.34 3 3s-1.34 3-3 3-3-1.34-3-3 1.34-3 3-3zm0 14.2c-2.5 0-4.71-1.28-6-3.22.03-1.99 4-3.08 6-3.08 1.99 0 5.97 1.09 6 3.08-1.29 1.94-3.5 3.22-6 3.22z"/>
  </symbol>

  <!-- Alerts Icon -->
  <symbol id="cm-alerts" viewBox="0 0 24 24" aria-label="Alerts and Notifications" focusable="true">
    <path d="M12 22c1.1 0 2-.9 2-2h-4c0 1.1.9 2 2 2zm6-6v-5c0-3.07-1.63-5.64-4.5-6.32V4c0-.83-.67-1.5-1.5-1.5s-1.5.67-1.5 1.5v.68C7.64 5.36 6 7.92 6 11v5l-2 2v1h16v-1l-2-2zm-2 1H8v-6c0-2.48 1.51-4.5 4-4.5s4 2.02 4 4.5v6z"/>
  </symbol>

  <!-- High Contrast Alerts -->
  <symbol id="cm-alerts-high-contrast" viewBox="0 0 24 24" aria-label="Alerts and Notifications High Contrast" focusable="true">
    <path stroke-width="2" d="M12 22c1.1 0 2-.9 2-2h-4c0 1.1.9 2 2 2zm6-6v-5c0-3.07-1.63-5.64-4.5-6.32V4c0-.83-.67-1.5-1.5-1.5s-1.5.67-1.5 1.5v.68C7.64 5.36 6 7.92 6 11v5l-2 2v1h16v-1l-2-2zm-2 1H8v-6c0-2.48 1.51-4.5 4-4.5s4 2.02 4 4.5v6z"/>
  </symbol>

  <!-- Settings Icon -->
  <symbol id="cm-settings" viewBox="0 0 24 24" aria-label="Settings" focusable="true">
    <path d="M19.14 12.94c.04-.3.06-.61.06-.94 0-.32-.02-.64-.07-.94l2.03-1.58c.18-.14.23-.41.12-.61l-1.92-3.32c-.12-.22-.37-.29-.59-.22l-2.39.96c-.5-.38-1.03-.7-1.62-.94l-.36-2.54c-.04-.24-.24-.41-.48-.41h-3.84c-.24 0-.43.17-.47.41l-.36 2.54c-.59.24-1.13.57-1.62.94l-2.39-.96c-.22-.08-.47 0-.59.22L2.74 8.87c-.12.21-.08.47.12.61l2.03 1.58c-.05.3-.09.63-.09.94s.02.64.07.94l-2.03 1.58c-.18.14-.23.41-.12.61l1.92 3.32c.12.22.37.29.59.22l2.39-.96c.5.38 1.03.7 1.62.94l.36 2.54c.05.24.24.41.48.41h3.84c.24 0 .44-.17.47-.41l.36-2.54c.59-.24 1.13-.56 1.62-.94l2.39.96c.22.08.47 0 .59-.22l1.92-3.32c.12-.22.07-.47-.12-.61l-2.01-1.58zM12 15.6c-1.98 0-3.6-1.62-3.6-3.6s1.62-3.6 3.6-3.6 3.6 1.62 3.6 3.6-1.62 3.6-3.6 3.6z"/>
  </symbol>

  <!-- High Contrast Settings -->
  <symbol id="cm-settings-high-contrast" viewBox="0 0 24 24" aria-label="Settings High Contrast" focusable="true">
    <path stroke-width="2" d="M19.14 12.94c.04-.3.06-.61.06-.94 0-.32-.02-.64-.07-.94l2.03-1.58c.18-.14.23-.41.12-.61l-1.92-3.32c-.12-.22-.37-.29-.59-.22l-2.39.96c-.5-.38-1.03-.7-1.62-.94l-.36-2.54c-.04-.24-.24-.41-.48-.41h-3.84c-.24 0-.43.17-.47.41l-.36 2.54c-.59.24-1.13.57-1.62.94l-2.39-.96c-.22-.08-.47 0-.59.22L2.74 8.87c-.12.21-.08.47.12.61l2.03 1.58c-.05.3-.09.63-.09.94s.02.64.07.94l-2.03 1.58c-.18.14-.23.41-.12.61l1.92 3.32c.12.22.37.29.59.22l2.39-.96c.5.38 1.03.7 1.62.94l.36 2.54c.05.24.24.41.48.41h3.84c.24 0 .44-.17.47-.41l.36-2.54c.59-.24 1.13-.56 1.62-.94l2.39.96c.22.08.47 0 .59-.22l1.92-3.32c.12-.22.07-.47-.12-.61l-2.01-1.58zM12 15.6c-1.98 0-3.6-1.62-3.6-3.6s1.62-3.6 3.6-3.6 3.6 1.62 3.6 3.6-1.62 3.6-3.6 3.6z"/>
  </symbol>

  <!-- Search Icon -->
  <symbol id="cm-search" viewBox="0 0 24 24" aria-label="Search" focusable="true">
    <path d="M15.5 14h-.79l-.28-.27C15.41 12.59 16 11.11 16 9.5 16 5.91 13.09 3 9.5 3S3 5.91 3 9.5 5.91 16 9.5 16c1.61 0 3.09-.59 4.23-1.57l.27.28v.79l5 4.99L20.49 19l-4.99-5zm-6 0C7.01 14 5 11.99 5 9.5S7.01 5 9.5 5 14 7.01 14 9.5 11.99 14 9.5 14z"/>
  </symbol>

  <!-- High Contrast Search -->
  <symbol id="cm-search-high-contrast" viewBox="0 0 24 24" aria-label="Search High Contrast" focusable="true">
    <path stroke-width="2" d="M15.5 14h-.79l-.28-.27C15.41 12.59 16 11.11 16 9.5 16 5.91 13.09 3 9.5 3S3 5.91 3 9.5 5.91 16 9.5 16c1.61 0 3.09-.59 4.23-1.57l.27.28v.79l5 4.99L20.49 19l-4.99-5zm-6 0C7.01 14 5 11.99 5 9.5S7.01 5 9.5 5 14 7.01 14 9.5 11.99 14 9.5 14z"/>
  </symbol>

  <!-- Close Icon -->
  <symbol id="cm-close" viewBox="0 0 24 24" aria-label="Close" focusable="true">
    <path d="M19 6.41L17.59 5 12 10.59 6.41 5 5 6.41 10.59 12 5 17.59 6.41 19 12 13.41 17.59 19 19 17.59 13.41 12z"/>
  </symbol>

  <!-- High Contrast Close -->
  <symbol id="cm-close-high-contrast" viewBox="0 0 24 24" aria-label="Close High Contrast" focusable="true">
    <path stroke-width="2" d="M19 6.41L17.59 5 12 10.59 6.41 5 5 6.41 10.59 12 5 17.59 6.41 19 12 13.41 17.59 19 19 17.59 13.41 12z"/>
  </symbol>

  <!-- Menu Icon -->
  <symbol id="cm-menu" viewBox="0 0 24 24" aria-label="Menu" focusable="true">
    <path d="M3 18h18v-2H3v2zm0-5h18v-2H3v2zm0-7v2h18V6H3z"/>
  </symbol>

  <!-- High Contrast Menu -->
  <symbol id="cm-menu-high-contrast" viewBox="0 0 24 24" aria-label="Menu High Contrast" focusable="true">
    <path stroke-width="2" d="M3 18h18v-2H3v2zm0-5h18v-2H3v2zm0-7v2h18V6H3z"/>
  </symbol>
</svg>